<?xml version="1.0" encoding="utf-8"?>
<!-- Generator: Adobe Illustrator 27.5.0, SVG Export Plug-In . SVG Version: 6.00 Build 0)  -->
<svg version="1.1" id="Layer_1" xmlns="http://www.w3.org/2000/svg" xmlns:xlink="http://www.w3.org/1999/xlink" x="0px" y="0px"
	 viewBox="0 0 270 180" style="enable-background:new 0 0 270 180;" xml:space="preserve">
<style type="text/css">
	.st0{fill:none;stroke:#000000;stroke-width:1.5;stroke-linecap:round;}
	.st1{fill-rule:evenodd;clip-rule:evenodd;fill:#FFFFFF;stroke:#000000;stroke-width:1.5;}
	
		.st2{fill-rule:evenodd;clip-rule:evenodd;fill:#FFFFFF;stroke:#000000;stroke-width:1.5;stroke-linecap:round;stroke-linejoin:round;}
	.st3{fill:none;stroke:#000000;stroke-width:1.5;stroke-linecap:round;stroke-linejoin:round;}
	.st4{fill-rule:evenodd;clip-rule:evenodd;fill:#FFFFFF;stroke:#000000;stroke-width:1.5;stroke-linejoin:round;}
	.st5{fill-rule:evenodd;clip-rule:evenodd;stroke:#000000;stroke-width:1.5;stroke-linecap:round;stroke-linejoin:round;}
	
		.st6{fill-rule:evenodd;clip-rule:evenodd;stroke:#000000;stroke-width:1.5;stroke-linecap:round;stroke-linejoin:round;stroke-miterlimit:3.9999;}
	.st7{fill:#FFFFFF;stroke:#000000;stroke-width:1.5;stroke-linecap:round;}
	.st8{fill:#939598;stroke:#000000;stroke-width:1.5;stroke-linecap:round;}
	.st9{fill-rule:evenodd;clip-rule:evenodd;fill:#939598;stroke:#000000;stroke-width:1.5;}
	
		.st10{fill-rule:evenodd;clip-rule:evenodd;fill:#939598;stroke:#000000;stroke-width:1.5;stroke-linecap:round;stroke-linejoin:round;}
	.st11{fill:#939598;stroke:#000000;stroke-width:1.5;stroke-linecap:round;stroke-linejoin:round;}
	.st12{fill-rule:evenodd;clip-rule:evenodd;fill:#939598;stroke:#000000;stroke-width:1.5;stroke-linejoin:round;}
	
		.st13{fill-rule:evenodd;clip-rule:evenodd;fill:#939598;stroke:#000000;stroke-width:1.5;stroke-linecap:round;stroke-linejoin:round;stroke-miterlimit:3.9999;}
	.st14{fill-rule:evenodd;clip-rule:evenodd;fill:#BF565A;stroke:#000000;stroke-width:1.5;}
	
		.st15{fill-rule:evenodd;clip-rule:evenodd;fill:#BF565A;stroke:#000000;stroke-width:1.5;stroke-linecap:round;stroke-linejoin:round;}
	.st16{fill-rule:evenodd;clip-rule:evenodd;fill:#BF565A;stroke:#000000;stroke-width:1.5;stroke-linejoin:round;}
	.st17{fill:#BF565A;stroke:#000000;stroke-width:1.5;stroke-linecap:round;}
	
		.st18{fill-rule:evenodd;clip-rule:evenodd;fill:#BF565A;stroke:#000000;stroke-width:1.5;stroke-linecap:round;stroke-linejoin:round;stroke-miterlimit:3.9999;}
	.st19{fill-rule:evenodd;clip-rule:evenodd;stroke:#000000;stroke-width:1.5;}
	.st20{fill:none;stroke:#FFFFFF;stroke-width:1.5;stroke-linecap:round;stroke-linejoin:round;}
	.st21{fill-rule:evenodd;clip-rule:evenodd;}
	.st22{fill-rule:evenodd;clip-rule:evenodd;stroke:#000000;stroke-width:1.5;stroke-linejoin:round;}
	.st23{fill:none;stroke:#000000;stroke-width:1.5;stroke-linejoin:round;}
	.st24{fill:none;stroke:#FFFFFF;stroke-width:1.5;stroke-linecap:round;}
	
		.st25{fill-rule:evenodd;clip-rule:evenodd;fill:#FFFFFF;stroke:#FFFFFF;stroke-width:1.5;stroke-linecap:round;stroke-linejoin:round;}
	
		.st26{fill-rule:evenodd;clip-rule:evenodd;fill:#FFFFFF;stroke:#FFFFFF;stroke-width:1.5;stroke-linecap:round;stroke-linejoin:round;stroke-miterlimit:3.9999;}
	.st27{fill-rule:evenodd;clip-rule:evenodd;fill:#FFFFFF;}
	.st28{fill:none;stroke:#FFFFFF;stroke-linecap:round;}
	.st29{stroke:#000000;stroke-width:1.5;stroke-linecap:round;}
</style>
<g transform="translate(0,0)">
	<path class="st0" d="M22.5,11.6V6"/>
	<path class="st0" d="M20,8h5"/>
	<path class="st1" d="M22.5,25c0,0,4.5-7.5,3-10.5c0,0-1-2.5-3-2.5s-3,2.5-3,2.5C18,17.5,22.5,25,22.5,25"/>
	<path class="st2" d="M11.5,37c5.5,3.5,15.5,3.5,21,0v-7c0,0,9-4.5,6-10.5c-4-6.5-13.5-3.5-16,4V27v-3.5c-3.5-7.5-13-10.5-16-4
		c-3,6,5,10,5,10V37z"/>
	<path class="st3" d="M11.5,30c5.5-3,15.5-3,21,0"/>
	<path class="st3" d="M11.5,33.5c5.5-3,15.5-3,21,0"/>
	<path class="st3" d="M11.5,37c5.5-3,15.5-3,21,0"/>
</g>
<g transform="translate(45,0)">
	<path class="st2" d="M8,12c0,1.1-0.9,2-2,2s-2-0.9-2-2s0.9-2,2-2S8,10.9,8,12z"/>
	<path class="st2" d="M24.5,7.5c0,1.1-0.9,2-2,2s-2-0.9-2-2s0.9-2,2-2S24.5,6.4,24.5,7.5z"/>
	<path class="st2" d="M41,12c0,1.1-0.9,2-2,2s-2-0.9-2-2s0.9-2,2-2S41,10.9,41,12z"/>
	<path class="st2" d="M16,8.5c0,1.1-0.9,2-2,2s-2-0.9-2-2s0.9-2,2-2S16,7.4,16,8.5z"/>
	<path class="st2" d="M33,9c0,1.1-0.9,2-2,2s-2-0.9-2-2s0.9-2,2-2S33,7.9,33,9z"/>
	<path class="st4" d="M9,26c8.5-1.5,21-1.5,27,0l2-12l-7,11V11l-5.5,13.5l-3-15l-3,15l-5.5-14V25L7,14L9,26z"/>
	<path class="st4" d="M9,26c0,2,1.5,2,2.5,4c1,1.5,1,1,0.5,3.5c-1.5,1-1.5,2.5-1.5,2.5C9,37.5,11,38.5,11,38.5c6.5,1,16.5,1,23,0
		c0,0,1.5-1,0-2.5c0,0,0.5-1.5-1-2.5c-0.5-2.5-0.5-2,0.5-3.5c1-2,2.5-2,2.5-4C27.5,24.5,17.5,24.5,9,26z"/>
	<path class="st3" d="M11.5,30c3.5-1,18.5-1,22,0"/>
	<path class="st3" d="M12,33.5c6-1,15-1,21,0"/>
</g>
<g transform="translate(90,0)">
	<g>
		<path class="st4" d="M9,36c3.4-1,10.1,0.4,13.5-2c3.4,2.4,10.1,1,13.5,2c0,0,1.7,0.5,3,2c-0.7,1-1.7,1-3,0.5
			c-3.4-1-10.1,0.5-13.5-1c-3.4,1.5-10.1,0-13.5,1C7.6,39,6.7,39,6,38C7.4,36.1,9,36,9,36z"/>
		<path class="st4" d="M15,32c2.5,2.5,12.5,2.5,15,0c0.5-1.5,0-2,0-2c0-2.5-2.5-4-2.5-4c5.5-1.5,6-11.5-5-15.5c-11,4-10.5,14-5,15.5
			c0,0-2.5,1.5-2.5,4C15,30,14.5,30.5,15,32z"/>
		<path class="st4" d="M25,8c0,1.4-1.1,2.5-2.5,2.5S20,9.4,20,8s1.1-2.5,2.5-2.5S25,6.6,25,8z"/>
	</g>
	<path class="st0" d="M17.5,26h10 M15,30h15 M22.5,15.5v5 M20,18h5"/>
</g>
<g transform="translate(135,0)">
	<path class="st2" d="M22,10c10.5,1,16.5,8,16,29H15c0-9,10-6.5,8-21"/>
	<path class="st2" d="M24,18c0.4,2.9-5.5,7.4-8,9c-3,2-2.8,4.3-5,4c-1-0.9,1.4-3,0-3c-1,0,0.2,1.2-1,2c-1,0-4,1-4-4c0-2,6-12,6-12
		s1.9-1.9,2-3.5c-0.7-1-0.5-2-0.5-3c1-1,3,2.5,3,2.5h2c0,0,0.8-2,2.5-3c1,0,1,3,1,3"/>
	<path class="st5" d="M9.5,25.5C9.5,25.8,9.3,26,9,26s-0.5-0.2-0.5-0.5S8.7,25,9,25S9.5,25.2,9.5,25.5z"/>
	<path class="st6" d="M14.9,15.8c-0.4,0.7-0.9,1.2-1.2,1c-0.2-0.1-0.1-0.8,0.3-1.5c0.4-0.7,0.9-1.2,1.2-1
		C15.5,14.3,15.3,15,14.9,15.8z"/>
</g>
<g transform="translate(180,0)">
	<path class="st4" d="M9,39h27v-3H9V39z"/>
	<path class="st4" d="M12,36v-4h21v4H12z"/>
	<path class="st4" d="M11,14V9h4v2h5V9h5v2h5V9h4v5"/>
	<path class="st2" d="M34,14l-3,3H14l-3-3"/>
	<path class="st1" d="M31,17v12.5H14V17"/>
	<path class="st2" d="M31,29.5l1.5,2.5h-20l1.5-2.5"/>
	<path class="st0" d="M11,14h23"/>
</g>
<g transform="translate(225,0)">
	<path class="st7" d="M22,9c-2.2,0-4,1.8-4,4c0,0.9,0.3,1.7,0.8,2.4c-2,1.1-3.3,3.2-3.3,5.6c0,2,0.9,3.8,2.4,5
		c-3,1.1-7.4,5.5-7.4,13.5h23c0-7.9-4.4-12.4-7.4-13.5c1.5-1.2,2.4-3,2.4-5c0-2.4-1.3-4.5-3.3-5.6c0.5-0.7,0.8-1.5,0.8-2.4
		C26,10.8,24.2,9,22,9z"/>
</g>
<g transform="translate(0,0)">
	<path class="st0" d="M22.5,11.6V6"/>
	<path class="st0" d="M20,8h5"/>
	<path class="st1" d="M22.5,25c0,0,4.5-7.5,3-10.5c0,0-1-2.5-3-2.5s-3,2.5-3,2.5C18,17.5,22.5,25,22.5,25"/>
	<path class="st2" d="M11.5,37c5.5,3.5,15.5,3.5,21,0v-7c0,0,9-4.5,6-10.5c-4-6.5-13.5-3.5-16,4V27v-3.5c-3.5-7.5-13-10.5-16-4
		c-3,6,5,10,5,10V37z"/>
	<path class="st3" d="M11.5,30c5.5-3,15.5-3,21,0"/>
	<path class="st3" d="M11.5,33.5c5.5-3,15.5-3,21,0"/>
	<path class="st3" d="M11.5,37c5.5-3,15.5-3,21,0"/>
</g>
<g transform="translate(45,0)">
	<path class="st2" d="M8,12c0,1.1-0.9,2-2,2s-2-0.9-2-2s0.9-2,2-2S8,10.9,8,12z"/>
	<path class="st2" d="M24.5,7.5c0,1.1-0.9,2-2,2s-2-0.9-2-2s0.9-2,2-2S24.5,6.4,24.5,7.5z"/>
	<path class="st2" d="M41,12c0,1.1-0.9,2-2,2s-2-0.9-2-2s0.9-2,2-2S41,10.9,41,12z"/>
	<path class="st2" d="M16,8.5c0,1.1-0.9,2-2,2s-2-0.9-2-2s0.9-2,2-2S16,7.4,16,8.5z"/>
	<path class="st2" d="M33,9c0,1.1-0.9,2-2,2s-2-0.9-2-2s0.9-2,2-2S33,7.9,33,9z"/>
	<path class="st4" d="M9,26c8.5-1.5,21-1.5,27,0l2-12l-7,11V11l-5.5,13.5l-3-15l-3,15l-5.5-14V25L7,14L9,26z"/>
	<path class="st4" d="M9,26c0,2,1.5,2,2.5,4c1,1.5,1,1,0.5,3.5c-1.5,1-1.5,2.5-1.5,2.5C9,37.5,11,38.5,11,38.5c6.5,1,16.5,1,23,0
		c0,0,1.5-1,0-2.5c0,0,0.5-1.5-1-2.5c-0.5-2.5-0.5-2,0.5-3.5c1-2,2.5-2,2.5-4C27.5,24.5,17.5,24.5,9,26z"/>
	<path class="st3" d="M11.5,30c3.5-1,18.5-1,22,0"/>
	<path class="st3" d="M12,33.5c6-1,15-1,21,0"/>
</g>
<g transform="translate(90,0)">
	<g>
		<path class="st4" d="M9,36c3.4-1,10.1,0.4,13.5-2c3.4,2.4,10.1,1,13.5,2c0,0,1.7,0.5,3,2c-0.7,1-1.7,1-3,0.5
			c-3.4-1-10.1,0.5-13.5-1c-3.4,1.5-10.1,0-13.5,1C7.6,39,6.7,39,6,38C7.4,36.1,9,36,9,36z"/>
		<path class="st4" d="M15,32c2.5,2.5,12.5,2.5,15,0c0.5-1.5,0-2,0-2c0-2.5-2.5-4-2.5-4c5.5-1.5,6-11.5-5-15.5c-11,4-10.5,14-5,15.5
			c0,0-2.5,1.5-2.5,4C15,30,14.5,30.5,15,32z"/>
		<path class="st4" d="M25,8c0,1.4-1.1,2.5-2.5,2.5S20,9.4,20,8s1.1-2.5,2.5-2.5S25,6.6,25,8z"/>
	</g>
	<path class="st0" d="M17.5,26h10 M15,30h15 M22.5,15.5v5 M20,18h5"/>
</g>
<g transform="translate(135,0)">
	<path class="st2" d="M22,10c10.5,1,16.5,8,16,29H15c0-9,10-6.5,8-21"/>
	<path class="st2" d="M24,18c0.4,2.9-5.5,7.4-8,9c-3,2-2.8,4.3-5,4c-1-0.9,1.4-3,0-3c-1,0,0.2,1.2-1,2c-1,0-4,1-4-4c0-2,6-12,6-12
		s1.9-1.9,2-3.5c-0.7-1-0.5-2-0.5-3c1-1,3,2.5,3,2.5h2c0,0,0.8-2,2.5-3c1,0,1,3,1,3"/>
	<path class="st5" d="M9.5,25.5C9.5,25.8,9.3,26,9,26s-0.5-0.2-0.5-0.5S8.7,25,9,25S9.5,25.2,9.5,25.5z"/>
	<path class="st6" d="M14.9,15.8c-0.4,0.7-0.9,1.2-1.2,1c-0.2-0.1-0.1-0.8,0.3-1.5c0.4-0.7,0.9-1.2,1.2-1
		C15.5,14.3,15.3,15,14.9,15.8z"/>
</g>
<g transform="translate(180,0)">
	<path class="st4" d="M9,39h27v-3H9V39z"/>
	<path class="st4" d="M12,36v-4h21v4H12z"/>
	<path class="st4" d="M11,14V9h4v2h5V9h5v2h5V9h4v5"/>
	<path class="st2" d="M34,14l-3,3H14l-3-3"/>
	<path class="st1" d="M31,17v12.5H14V17"/>
	<path class="st2" d="M31,29.5l1.5,2.5h-20l1.5-2.5"/>
	<path class="st0" d="M11,14h23"/>
</g>
<g transform="translate(225,0)">
	<path class="st7" d="M22,9c-2.2,0-4,1.8-4,4c0,0.9,0.3,1.7,0.8,2.4c-2,1.1-3.3,3.2-3.3,5.6c0,2,0.9,3.8,2.4,5
		c-3,1.1-7.4,5.5-7.4,13.5h23c0-7.9-4.4-12.4-7.4-13.5c1.5-1.2,2.4-3,2.4-5c0-2.4-1.3-4.5-3.3-5.6c0.5-0.7,0.8-1.5,0.8-2.4
		C26,10.8,24.2,9,22,9z"/>
</g>
<g transform="translate(0,0)">
	<path class="st8" d="M22.5,146.6V141"/>
	<path class="st8" d="M20,143h5"/>
	<path class="st9" d="M22.5,160c0,0,4.5-7.5,3-10.5c0,0-1-2.5-3-2.5s-3,2.5-3,2.5C18,152.5,22.5,160,22.5,160"/>
	<path class="st10" d="M11.5,172c5.5,3.5,15.5,3.5,21,0v-7c0,0,9-4.5,6-10.5c-4-6.5-13.5-3.5-16,4v3.5v-3.5c-3.5-7.5-13-10.5-16-4
		c-3,6,5,10,5,10V172z"/>
	<path class="st11" d="M11.5,165c5.5-3,15.5-3,21,0"/>
	<path class="st11" d="M11.5,168.5c5.5-3,15.5-3,21,0"/>
	<path class="st11" d="M11.5,172c5.5-3,15.5-3,21,0"/>
</g>
<g transform="translate(45,0)">
	<path class="st10" d="M8,147c0,1.1-0.9,2-2,2s-2-0.9-2-2s0.9-2,2-2S8,145.9,8,147z"/>
	<path class="st10" d="M24.5,142.5c0,1.1-0.9,2-2,2s-2-0.9-2-2s0.9-2,2-2S24.5,141.4,24.5,142.5z"/>
	<path class="st10" d="M41,147c0,1.1-0.9,2-2,2s-2-0.9-2-2s0.9-2,2-2S41,145.9,41,147z"/>
	<path class="st10" d="M16,143.5c0,1.1-0.9,2-2,2s-2-0.9-2-2s0.9-2,2-2S16,142.4,16,143.5z"/>
	<path class="st10" d="M33,144c0,1.1-0.9,2-2,2s-2-0.9-2-2s0.9-2,2-2S33,142.9,33,144z"/>
	<path class="st12" d="M9,161c8.5-1.5,21-1.5,27,0l2-12l-7,11v-14l-5.5,13.5l-3-15l-3,15l-5.5-14V160l-7-11L9,161z"/>
	<path class="st12" d="M9,161c0,2,1.5,2,2.5,4c1,1.5,1,1,0.5,3.5c-1.5,1-1.5,2.5-1.5,2.5c-1.5,1.5,0.5,2.5,0.5,2.5
		c6.5,1,16.5,1,23,0c0,0,1.5-1,0-2.5c0,0,0.5-1.5-1-2.5c-0.5-2.5-0.5-2,0.5-3.5c1-2,2.5-2,2.5-4C27.5,159.5,17.5,159.5,9,161z"/>
	<path class="st11" d="M11.5,165c3.5-1,18.5-1,22,0"/>
	<path class="st11" d="M12,168.5c6-1,15-1,21,0"/>
</g>
<g transform="translate(90,0)">
	<g>
		<path class="st12" d="M9,171c3.4-1,10.1,0.4,13.5-2c3.4,2.4,10.1,1,13.5,2c0,0,1.7,0.5,3,2c-0.7,1-1.7,1-3,0.5
			c-3.4-1-10.1,0.5-13.5-1c-3.4,1.5-10.1,0-13.5,1C7.6,174,6.7,174,6,173C7.4,171.1,9,171,9,171z"/>
		<path class="st12" d="M15,167c2.5,2.5,12.5,2.5,15,0c0.5-1.5,0-2,0-2c0-2.5-2.5-4-2.5-4c5.5-1.5,6-11.5-5-15.5
			c-11,4-10.5,14-5,15.5c0,0-2.5,1.5-2.5,4C15,165,14.5,165.5,15,167z"/>
		<path class="st12" d="M25,143c0,1.4-1.1,2.5-2.5,2.5S20,144.4,20,143s1.1-2.5,2.5-2.5S25,141.6,25,143z"/>
	</g>
	<path class="st8" d="M17.5,161h10 M15,165h15 M22.5,150.5v5 M20,153h5"/>
</g>
<g transform="translate(135,0)">
	<path class="st10" d="M22,145c10.5,1,16.5,8,16,29H15c0-9,10-6.5,8-21"/>
	<path class="st10" d="M24,153c0.4,2.9-5.5,7.4-8,9c-3,2-2.8,4.3-5,4c-1-0.9,1.4-3,0-3c-1,0,0.2,1.2-1,2c-1,0-4,1-4-4c0-2,6-12,6-12
		s1.9-1.9,2-3.5c-0.7-1-0.5-2-0.5-3c1-1,3,2.5,3,2.5h2c0,0,0.8-2,2.5-3c1,0,1,3,1,3"/>
	<path class="st10" d="M9.5,160.5c0,0.3-0.2,0.5-0.5,0.5s-0.5-0.2-0.5-0.5S8.7,160,9,160S9.5,160.2,9.5,160.5z"/>
	<path class="st13" d="M14.9,150.8c-0.4,0.7-0.9,1.2-1.2,1c-0.2-0.1-0.1-0.8,0.3-1.5c0.4-0.7,0.9-1.2,1.2-1
		C15.5,149.3,15.3,150,14.9,150.8z"/>
</g>
<g transform="translate(180,0)">
	<path class="st12" d="M9,174h27v-3H9V174z"/>
	<path class="st12" d="M12,171v-4h21v4H12z"/>
	<path class="st12" d="M11,149v-5h4v2h5v-2h5v2h5v-2h4v5"/>
	<path class="st10" d="M34,149l-3,3H14l-3-3"/>
	<path class="st9" d="M31,152v12.5H14V152"/>
	<path class="st10" d="M31,164.5l1.5,2.5h-20l1.5-2.5"/>
	<path class="st8" d="M11,149h23"/>
</g>
<g transform="translate(225,0)">
	<path class="st8" d="M22,144c-2.2,0-4,1.8-4,4c0,0.9,0.3,1.7,0.8,2.4c-2,1.1-3.3,3.2-3.3,5.6c0,2,0.9,3.8,2.4,5
		c-3,1.1-7.4,5.6-7.4,13.5h23c0-7.9-4.4-12.4-7.4-13.5c1.5-1.2,2.4-3,2.4-5c0-2.4-1.3-4.5-3.3-5.6c0.5-0.7,0.8-1.5,0.8-2.4
		C26,145.8,24.2,144,22,144z"/>
</g>
<g>
	<path class="st0" d="M22.5,101.6V96"/>
	<path class="st0" d="M20,98h5"/>
	<path class="st14" d="M22.5,115c0,0,4.5-7.5,3-10.5c0,0-1-2.5-3-2.5s-3,2.5-3,2.5C18,107.5,22.5,115,22.5,115"/>
	<path class="st15" d="M11.5,127c5.5,3.5,15.5,3.5,21,0v-7c0,0,9-4.5,6-10.5c-4-6.5-13.5-3.5-16,4v3.5v-3.5c-3.5-7.5-13-10.5-16-4
		c-3,6,5,10,5,10V127z"/>
	<path class="st3" d="M11.5,120c5.5-3,15.5-3,21,0"/>
	<path class="st3" d="M11.5,123.5c5.5-3,15.5-3,21,0"/>
	<path class="st3" d="M11.5,127c5.5-3,15.5-3,21,0"/>
</g>
<g>
	<path class="st15" d="M53,102c0,1.1-0.9,2-2,2s-2-0.9-2-2s0.9-2,2-2S53,100.9,53,102z"/>
	<path class="st15" d="M69.5,97.5c0,1.1-0.9,2-2,2s-2-0.9-2-2s0.9-2,2-2S69.5,96.4,69.5,97.5z"/>
	<path class="st15" d="M86,102c0,1.1-0.9,2-2,2s-2-0.9-2-2s0.9-2,2-2S86,100.9,86,102z"/>
	<path class="st15" d="M61,98.5c0,1.1-0.9,2-2,2s-2-0.9-2-2s0.9-2,2-2S61,97.4,61,98.5z"/>
	<path class="st15" d="M78,99c0,1.1-0.9,2-2,2s-2-0.9-2-2s0.9-2,2-2S78,97.9,78,99z"/>
	<path class="st16" d="M54,116c8.5-1.5,21-1.5,27,0l2-12l-7,11v-14l-5.5,13.5l-3-15l-3,15l-5.5-14V115l-7-11L54,116z"/>
	<path class="st16" d="M54,116c0,2,1.5,2,2.5,4c1,1.5,1,1,0.5,3.5c-1.5,1-1.5,2.5-1.5,2.5c-1.5,1.5,0.5,2.5,0.5,2.5
		c6.5,1,16.5,1,23,0c0,0,1.5-1,0-2.5c0,0,0.5-1.5-1-2.5c-0.5-2.5-0.5-2,0.5-3.5c1-2,2.5-2,2.5-4C72.5,114.5,62.5,114.5,54,116z"/>
	<path class="st3" d="M56.5,120c3.5-1,18.5-1,22,0"/>
	<path class="st3" d="M57,123.5c6-1,15-1,21,0"/>
</g>
<g transform="translate(90,0)">
	<g>
		<path class="st16" d="M9,126c3.4-1,10.1,0.4,13.5-2c3.4,2.4,10.1,1,13.5,2c0,0,1.7,0.5,3,2c-0.7,1-1.7,1-3,0.5
			c-3.4-1-10.1,0.5-13.5-1c-3.4,1.5-10.1,0-13.5,1C7.6,129,6.7,129,6,128C7.4,126.1,9,126,9,126z"/>
		<path class="st16" d="M15,122c2.5,2.5,12.5,2.5,15,0c0.5-1.5,0-2,0-2c0-2.5-2.5-4-2.5-4c5.5-1.5,6-11.5-5-15.5
			c-11,4-10.5,14-5,15.5c0,0-2.5,1.5-2.5,4C15,120,14.5,120.5,15,122z"/>
		<path class="st16" d="M25,98c0,1.4-1.1,2.5-2.5,2.5S20,99.4,20,98s1.1-2.5,2.5-2.5S25,96.6,25,98z"/>
	</g>
	<path class="st17" d="M17.5,116h10 M15,120h15 M22.5,105.5v5 M20,108h5"/>
</g>
<g transform="translate(135,0)">
	<path class="st15" d="M22,100c10.5,1,16.5,8,16,29H15c0-9,10-6.5,8-21"/>
	<path class="st15" d="M24,108c0.4,2.9-5.5,7.4-8,9c-3,2-2.8,4.3-5,4c-1-0.9,1.4-3,0-3c-1,0,0.2,1.2-1,2c-1,0-4,1-4-4c0-2,6-12,6-12
		s1.9-1.9,2-3.5c-0.7-1-0.5-2-0.5-3c1-1,3,2.5,3,2.5h2c0,0,0.8-2,2.5-3c1,0,1,3,1,3"/>
	<path class="st15" d="M9.5,115.5c0,0.3-0.2,0.5-0.5,0.5s-0.5-0.2-0.5-0.5S8.7,115,9,115S9.5,115.2,9.5,115.5z"/>
	<path class="st18" d="M14.9,105.8c-0.4,0.7-0.9,1.2-1.2,1c-0.2-0.1-0.1-0.8,0.3-1.5c0.4-0.7,0.9-1.2,1.2-1
		C15.5,104.3,15.3,105,14.9,105.8z"/>
</g>
<g transform="translate(180,0)">
	<path class="st16" d="M9,129h27v-3H9V129z"/>
	<path class="st16" d="M12,126v-4h21v4H12z"/>
	<path class="st16" d="M11,104v-5h4v2h5v-2h5v2h5v-2h4v5"/>
	<path class="st15" d="M34,104l-3,3H14l-3-3"/>
	<path class="st14" d="M31,107v12.5H14V107"/>
	<path class="st15" d="M31,119.5l1.5,2.5h-20l1.5-2.5"/>
	<path class="st17" d="M11,104h23"/>
</g>
<g transform="translate(225,0)">
	<path class="st17" d="M22,99c-2.2,0-4,1.8-4,4c0,0.9,0.3,1.7,0.8,2.4c-2,1.1-3.3,3.2-3.3,5.6c0,2,0.9,3.8,2.4,5
		c-3,1.1-7.4,5.6-7.4,13.5h23c0-7.9-4.4-12.4-7.4-13.5c1.5-1.2,2.4-3,2.4-5c0-2.4-1.3-4.5-3.3-5.6c0.5-0.7,0.8-1.5,0.8-2.4
		C26,100.8,24.2,99,22,99z"/>
</g>
<path class="st0" d="M22.5,56.6V51"/>
<path class="st19" d="M22.5,70c0,0,4.5-7.5,3-10.5c0,0-1-2.5-3-2.5s-3,2.5-3,2.5C18,62.5,22.5,70,22.5,70"/>
<path class="st5" d="M11.5,82c5.5,3.5,15.5,3.5,21,0v-7c0,0,9-4.5,6-10.5c-4-6.5-13.5-3.5-16,4V72v-3.5c-3.5-7.5-13-10.5-16-4
	c-3,6,5,10,5,10V82z"/>
<path class="st0" d="M20,53h5"/>
<path class="st20" d="M32,74.5c0,0,8.5-4,6-9.7C34.2,59,25,63,22.5,69.5l0,2.1l0-2.1C20,63,9.9,59,7,64.8c-2.5,5.7,4.9,9,4.9,9"/>
<path class="st20" d="M11.5,75c5.5-3,15.5-3,21,0 M11.5,78.5c5.5-3,15.5-3,21,0 M11.5,82c5.5-3,15.5-3,21,0"/>
<g transform="translate(45,45)">
	<g>
		<circle class="st21" cx="6" cy="12" r="2.8"/>
		<circle class="st21" cx="14" cy="9" r="2.8"/>
		<circle class="st21" cx="22.5" cy="8" r="2.8"/>
		<circle class="st21" cx="31" cy="9" r="2.8"/>
		<circle class="st21" cx="39" cy="12" r="2.8"/>
	</g>
	<path class="st22" d="M9,26c8.5-1.5,21-1.5,27,0l2.5-12.5L31,25l-0.3-14.1l-5.2,13.6l-3-14.5l-3,14.5l-5.2-13.6L14,25L6.5,13.5
		L9,26z"/>
	<path class="st22" d="M9,26c0,2,1.5,2,2.5,4c1,1.5,1,1,0.5,3.5c-1.5,1-1.5,2.5-1.5,2.5C9,37.5,11,38.5,11,38.5c6.5,1,16.5,1,23,0
		c0,0,1.5-1,0-2.5c0,0,0.5-1.5-1-2.5c-0.5-2.5-0.5-2,0.5-3.5c1-2,2.5-2,2.5-4C27.5,24.5,17.5,24.5,9,26z"/>
	<path class="st23" d="M11,38.5c7.4,2.6,15.6,2.6,23,0"/>
	<path class="st20" d="M11,29c7.4-2.6,15.6-2.6,23,0"/>
	<path class="st20" d="M12.5,31.5h20"/>
	<path class="st20" d="M11.5,34.5c7.1,2.4,14.9,2.4,22,0"/>
	<path class="st20" d="M10.5,37.5c7.7,2.8,16.3,2.8,24,0"/>
</g>
<g transform="translate(90,45)">
	<g>
		<path class="st22" d="M9,36c3.4-1,10.1,0.4,13.5-2c3.4,2.4,10.1,1,13.5,2c0,0,1.7,0.5,3,2c-0.7,1-1.7,1-3,0.5
			c-3.4-1-10.1,0.5-13.5-1c-3.4,1.5-10.1,0-13.5,1C7.6,39,6.7,39,6,38C7.4,36.1,9,36,9,36z"/>
		<path class="st22" d="M15,32c2.5,2.5,12.5,2.5,15,0c0.5-1.5,0-2,0-2c0-2.5-2.5-4-2.5-4c5.5-1.5,6-11.5-5-15.5
			c-11,4-10.5,14-5,15.5c0,0-2.5,1.5-2.5,4C15,30,14.5,30.5,15,32z"/>
		<path class="st22" d="M25,8c0,1.4-1.1,2.5-2.5,2.5S20,9.4,20,8s1.1-2.5,2.5-2.5S25,6.6,25,8z"/>
	</g>
	<path class="st24" d="M17.5,26h10 M15,30h15 M22.5,15.5v5 M20,18h5"/>
</g>
<g transform="translate(135,45)">
	<path class="st5" d="M22,10c10.5,1,16.5,8,16,29H15c0-9,10-6.5,8-21"/>
	<path class="st5" d="M24,18c0.4,2.9-5.5,7.4-8,9c-3,2-2.8,4.3-5,4c-1-0.9,1.4-3,0-3c-1,0,0.2,1.2-1,2c-1,0-4,1-4-4c0-2,6-12,6-12
		s1.9-1.9,2-3.5c-0.7-1-0.5-2-0.5-3c1-1,3,2.5,3,2.5h2c0,0,0.8-2,2.5-3c1,0,1,3,1,3"/>
	<path class="st25" d="M9.5,25.5C9.5,25.8,9.3,26,9,26s-0.5-0.2-0.5-0.5S8.7,25,9,25S9.5,25.2,9.5,25.5z"/>
	<path class="st26" d="M14.9,15.8c-0.4,0.7-0.9,1.2-1.2,1c-0.2-0.1-0.1-0.8,0.3-1.5c0.4-0.7,0.9-1.2,1.2-1
		C15.5,14.3,15.3,15,14.9,15.8z"/>
	<path class="st27" d="M24.5,10.4l-0.4,1.5l0.5,0.1c3.1,1,5.6,2.5,7.9,6.8s3.2,10.3,2.8,20.2l0,0.5h2.2l0-0.5
		c0.5-10.1-0.9-16.9-3.2-21.3s-5.8-6.6-9.2-7.2L24.5,10.4z"/>
</g>
<g transform="translate(180,45)">
	<path class="st22" d="M9,39h27v-3H9V39z"/>
	<path class="st22" d="M12.5,32l1.5-2.5h17l1.5,2.5H12.5z"/>
	<path class="st22" d="M12,36v-4h21v4H12z"/>
	<path class="st19" d="M14,29.5v-13h17v13H14z"/>
	<path class="st22" d="M14,16.5L11,14h23l-3,2.5H14z"/>
	<path class="st22" d="M11,14V9h4v2h5V9h5v2h5V9h4v5H11z"/>
	<path class="st28" d="M12,35.5h21l0,0"/>
	<path class="st28" d="M13,31.5h19"/>
	<path class="st28" d="M14,29.5h17"/>
	<path class="st28" d="M14,16.5h17"/>
	<path class="st28" d="M11,14h23"/>
</g>
<g transform="translate(225,45)">
	<path class="st29" d="M22,9c-2.2,0-4,1.8-4,4c0,0.9,0.3,1.7,0.8,2.4c-2,1.1-3.3,3.2-3.3,5.6c0,2,0.9,3.8,2.4,5
		c-3,1.1-7.4,5.5-7.4,13.5h23c0-7.9-4.4-12.4-7.4-13.5c1.5-1.2,2.4-3,2.4-5c0-2.4-1.3-4.5-3.3-5.6c0.5-0.7,0.8-1.5,0.8-2.4
		C26,10.8,24.2,9,22,9z"/>
</g>
</svg>
